<svg width="40" height="29" viewBox="0 0 40 29" fill="none" xmlns="http://www.w3.org/2000/svg">
<path d="M19.2474 29C19.2474 29 19.2474 23.4241 19.2474 15.053C19.2474 6.69619 19.2474 1.12024 19.2474 1.12024C27.7371 1.12024 34.0904 7.91593 34.0904 15.0253C34.0904 22.3786 27.6628 29 19.2474 29Z" fill="#FF9F00"/>
<path d="M34.1275 15.0601C34.1275 22.7588 27.4737 29 19.2659 29C11.0582 29 4.40442 22.7588 4.40442 15.0601C4.40442 7.3614 11.0582 1.12024 19.2659 1.12024C27.4737 1.12024 34.1275 7.3614 34.1275 15.0601Z" fill="url(#paint0_linear_43_51)"/>
<path d="M31.1552 15.0601C31.1552 21.2192 25.8322 26.212 19.2659 26.212C12.6997 26.212 7.37671 21.2192 7.37671 15.0601C7.37671 8.90105 12.6997 3.9082 19.2659 3.9082C25.8322 3.9082 31.1552 8.90105 31.1552 15.0601Z" fill="#FFBB00"/>
<path d="M30.0406 15.0602C30.0406 20.6418 25.2166 25.1666 19.2659 25.1666C13.3152 25.1666 8.49133 20.6418 8.49133 15.0602C8.49133 9.47848 13.3152 4.95374 19.2659 4.95374C25.2166 4.95374 30.0406 9.47848 30.0406 15.0602Z" fill="url(#paint1_linear_43_51)"/>
<path d="M19.8056 8.645L21.5873 12.0314C21.7022 12.2499 21.9244 12.4014 22.1815 12.4364L26.1659 12.9795C26.4896 13.0235 26.6187 13.3965 26.3845 13.6107L23.5015 16.2467C23.3156 16.4168 23.2307 16.6617 23.2746 16.9019L23.9551 20.624C24.0104 20.9263 23.6721 21.1569 23.3826 21.0141L19.819 19.2567C19.5891 19.1434 19.3144 19.1434 19.0845 19.2567L15.5209 21.0141C15.2314 21.1569 14.8931 20.9263 14.9484 20.624L15.6289 16.9019C15.6727 16.6617 15.5879 16.4168 15.402 16.2467L12.519 13.6107C12.2848 13.3965 12.4139 13.0235 12.7376 12.9795L16.722 12.4364C16.9791 12.4014 17.2013 12.2499 17.3161 12.0314L19.0979 8.645C19.2426 8.36996 19.6608 8.36996 19.8056 8.645Z" fill="url(#paint2_linear_43_51)"/>
<path d="M21.9589 12.3799C22.0739 12.5984 22.2961 12.7499 22.5532 12.7849L26.5025 13.3232C26.4909 13.1599 26.3659 13.0068 26.1659 12.9795L22.1816 12.4364C22.0998 12.4252 22.0237 12.3986 21.9513 12.3654L21.9589 12.3799Z" fill="#E26500"/>
<path d="M15.32 20.9724L16.0005 17.2504C16.0443 17.0102 15.9596 16.7652 15.7735 16.5952L15.4366 16.2871C15.5957 16.4545 15.6697 16.679 15.6289 16.9019L14.9484 20.6239C14.9059 20.8562 15.096 21.0442 15.3176 21.0551C15.3161 21.0281 15.3148 21.001 15.32 20.9724Z" fill="#E26500"/>
<path d="M13.1091 13.328L17.0934 12.7849C17.3505 12.7499 17.5726 12.5983 17.6877 12.3799L19.4694 8.99349C19.5524 8.83583 19.7247 8.77171 19.8844 8.79471L19.8056 8.645C19.6608 8.36996 19.2426 8.36996 19.0979 8.645L17.3161 12.0314C17.2011 12.2499 16.9789 12.4014 16.7218 12.4364L12.7376 12.9795C12.4139 13.0235 12.2848 13.3965 12.519 13.6107L12.8617 13.9242C12.6738 13.7068 12.8018 13.3698 13.1091 13.328Z" fill="#E26500"/>
<mask id="mask0_43_51" style="mask-type:alpha" maskUnits="userSpaceOnUse" x="4" y="1" width="31" height="28">
<path d="M19.2659 1.12024C11.0582 1.12024 4.40442 7.36126 4.40442 15.0601C4.40442 22.7588 11.0582 29 19.2659 29C27.4737 29 34.1275 22.7588 34.1275 15.0601C34.1275 7.36126 27.4737 1.12024 19.2659 1.12024ZM19.2659 26.212C12.6997 26.212 7.37672 21.2192 7.37672 15.0601C7.37672 8.90106 12.6997 3.90822 19.2659 3.90822C25.8322 3.90822 31.1552 8.90106 31.1552 15.0601C31.1552 21.2192 25.8322 26.212 19.2659 26.212Z" fill="#231526"/>
<path d="M19.2659 4.95374C13.3152 4.95374 8.49133 9.47848 8.49133 15.0602C8.49133 20.6418 13.3152 25.1666 19.2659 25.1666C25.2166 25.1666 30.0406 20.6418 30.0406 15.0602C30.0406 9.47848 25.2166 4.95374 19.2659 4.95374Z" fill="#231526"/>
</mask>
<g mask="url(#mask0_43_51)">
<g opacity="0.5">
<path d="M53.7781 6.67412L46.0679 15.2867L17.4492 -7.22168L25.1594 -15.8343L53.7781 6.67412Z" fill="white"/>
</g>
</g>
<path d="M37.5182 1.34118C36.0634 2.53197 35.7007 2.60757 33.891 2.09722C35.1172 3.43923 35.1882 3.77946 34.6008 5.49949C36.0556 4.3087 36.4183 4.2331 38.228 4.74345C37.0018 3.40144 36.9308 3.06121 37.5182 1.34118Z" fill="url(#paint3_linear_43_51)"/>
<g opacity="0.124667">
<path d="M1.72415 20.2965C1.29171 21.0235 1.1485 21.1104 0.292025 21.1657C1.03169 21.5529 1.1165 21.6872 1.14011 22.509C1.57254 21.782 1.71575 21.6951 2.57223 21.6398C1.83256 21.2526 1.74775 21.1183 1.72415 20.2965Z" fill="url(#paint4_linear_43_51)"/>
</g>
<defs>
<linearGradient id="paint0_linear_43_51" x1="11.3789" y1="3.34518" x2="27.8079" y2="26.5004" gradientUnits="userSpaceOnUse">
<stop stop-color="#FFEA00"/>
<stop offset="0.5" stop-color="#FFC700"/>
<stop offset="1" stop-color="#FFA500"/>
</linearGradient>
<linearGradient id="paint1_linear_43_51" x1="13.4438" y1="6.49563" x2="25.6116" y2="23.4732" gradientUnits="userSpaceOnUse">
<stop stop-color="#FFE900"/>
<stop offset="0.5" stop-color="#FFC700"/>
<stop offset="1" stop-color="#FFA600"/>
</linearGradient>
<linearGradient id="paint2_linear_43_51" x1="19.4146" y1="8.36899" x2="19.4146" y2="20.9878" gradientUnits="userSpaceOnUse">
<stop stop-color="#FFAD00"/>
<stop offset="0.5" stop-color="#FF8F00"/>
<stop offset="1" stop-color="#FF7100"/>
</linearGradient>
<linearGradient id="paint3_linear_43_51" x1="40.5532" y1="-29.4682" x2="61.3059" y2="-14.9083" gradientUnits="userSpaceOnUse">
<stop stop-color="#FFEA00"/>
<stop offset="0.5" stop-color="#FFE400"/>
<stop offset="1" stop-color="#FFDD00"/>
</linearGradient>
<linearGradient id="paint4_linear_43_51" x1="-1.90424" y1="6.70537" x2="9.3391" y2="9.6733" gradientUnits="userSpaceOnUse">
<stop stop-color="#FFEA00"/>
<stop offset="0.5" stop-color="#FFE400"/>
<stop offset="1" stop-color="#FFDD00"/>
</linearGradient>
</defs>
</svg>
