<svg width="443" height="104" viewBox="0 0 443 104" fill="none" xmlns="http://www.w3.org/2000/svg">
<rect x="23.5" y="2.5" width="396" height="99" rx="27.5" fill="#454579" stroke="#A29BF8" stroke-width="5"/>
<g filter="url(#filter0_d_3_77)">
<rect x="85" y="18" width="272" height="67" rx="17" fill="#5648D8" shape-rendering="crispEdges"/>
<path d="M126.32 66.04L131.56 37.6L144.2 36.52C144.013 37.1067 143.853 37.7067 143.72 38.32C143.587 38.8267 143.453 39.36 143.32 39.92C143.213 40.4533 143.12 40.9333 143.04 41.36C142.773 41.3867 142.387 41.4133 141.88 41.44C141.4 41.44 140.88 41.4533 140.32 41.48C139.76 41.48 139.187 41.48 138.6 41.48C138.04 41.48 137.547 41.48 137.12 41.48L135.72 48.64C136.547 48.5867 137.32 48.5467 138.04 48.52C138.627 48.4933 139.227 48.48 139.84 48.48C140.453 48.48 140.907 48.4667 141.2 48.44C141.093 49.1867 140.987 49.92 140.88 50.64C140.8 51.36 140.693 52.0933 140.56 52.84C140.293 52.8667 139.853 52.8933 139.24 52.92C138.653 52.92 138.053 52.9333 137.44 52.96C136.747 52.9867 135.987 53.0133 135.16 53.04L133.8 60.4L139.64 59.48L139.24 64.04L126.32 66.04ZM139.833 66.2C140.633 62.36 141.393 58.64 142.113 55.04C142.379 53.4933 142.659 51.8933 142.953 50.24C143.273 48.5867 143.566 46.96 143.833 45.36C144.099 43.7333 144.339 42.1867 144.553 40.72C144.766 39.2267 144.926 37.88 145.033 36.68C145.379 36.7067 145.673 36.72 145.913 36.72C146.153 36.72 146.433 36.72 146.753 36.72C147.126 36.72 147.579 36.72 148.113 36.72C148.646 36.6933 149.179 36.6667 149.713 36.64C150.246 36.6133 150.819 36.5867 151.433 36.56C151.806 38.4267 152.139 40.2267 152.433 41.96C152.726 43.48 153.019 45.04 153.313 46.64C153.633 48.24 153.913 49.6 154.153 50.72C154.259 50.1867 154.379 49.5733 154.513 48.88C154.646 48.16 154.793 47.4133 154.953 46.64C155.113 45.8667 155.259 45.0933 155.393 44.32C155.553 43.52 155.713 42.7333 155.873 41.96C156.246 40.2267 156.633 38.44 157.033 36.6L161.913 36C161.006 40.08 160.206 43.9467 159.513 47.6C159.193 49.1733 158.873 50.7733 158.553 52.4C158.259 54 157.979 55.5467 157.713 57.04C157.446 58.5067 157.219 59.88 157.033 61.16C156.846 62.4133 156.699 63.4667 156.593 64.32C156.513 64.32 156.193 64.3867 155.633 64.52C155.099 64.6267 154.473 64.76 153.753 64.92C153.059 65.08 152.353 65.24 151.633 65.4C150.939 65.56 150.419 65.7067 150.073 65.84C149.913 63.7067 149.739 61.68 149.553 59.76C149.473 58.9333 149.379 58.0933 149.273 57.24C149.193 56.36 149.099 55.52 148.993 54.72C148.886 53.92 148.779 53.1733 148.673 52.48C148.566 51.7867 148.459 51.1867 148.353 50.68C148.273 51.1867 148.166 51.7733 148.033 52.44C147.899 53.1067 147.766 53.8133 147.633 54.56C147.499 55.3067 147.366 56.0933 147.233 56.92C147.099 57.72 146.953 58.4933 146.793 59.24C146.446 61.0267 146.073 62.8933 145.673 64.84L139.833 66.2ZM158.039 66.04L163.279 37.6L175.919 36.52C175.732 37.1067 175.572 37.7067 175.439 38.32C175.305 38.8267 175.172 39.36 175.039 39.92C174.932 40.4533 174.839 40.9333 174.759 41.36C174.492 41.3867 174.105 41.4133 173.599 41.44C173.119 41.44 172.599 41.4533 172.039 41.48C171.479 41.48 170.905 41.48 170.319 41.48C169.759 41.48 169.265 41.48 168.839 41.48L167.439 48.64C168.265 48.5867 169.039 48.5467 169.759 48.52C170.345 48.4933 170.945 48.48 171.559 48.48C172.172 48.48 172.625 48.4667 172.919 48.44C172.812 49.1867 172.705 49.92 172.599 50.64C172.519 51.36 172.412 52.0933 172.279 52.84C172.012 52.8667 171.572 52.8933 170.959 52.92C170.372 52.92 169.772 52.9333 169.159 52.96C168.465 52.9867 167.705 53.0133 166.879 53.04L165.519 60.4L171.359 59.48L170.959 64.04L158.039 66.04ZM171.512 66.04C172.232 62.4933 172.925 59.0267 173.592 55.64C173.832 54.2 174.098 52.7067 174.392 51.16C174.685 49.5867 174.952 48.04 175.192 46.52C175.458 44.9733 175.698 43.4933 175.912 42.08C176.152 40.64 176.338 39.3333 176.472 38.16C177.992 37.68 179.632 37.3333 181.392 37.12C183.152 36.88 184.898 36.76 186.632 36.76C187.672 36.76 188.525 36.88 189.192 37.12C189.885 37.36 190.418 37.7067 190.792 38.16C191.192 38.5867 191.472 39.0933 191.632 39.68C191.792 40.2667 191.872 40.92 191.872 41.64C191.872 42.7067 191.685 43.76 191.312 44.8C190.938 45.8133 190.432 46.7867 189.792 47.72C189.178 48.6267 188.458 49.4667 187.632 50.24C186.832 50.9867 185.965 51.6 185.032 52.08C185.512 53.1467 186.018 54.32 186.552 55.6C187.112 56.8533 187.632 58.0533 188.112 59.2C188.645 60.5333 189.192 61.8667 189.752 63.2L183.552 65.36C183.018 63.6533 182.538 62.0533 182.112 60.56C181.925 59.9467 181.738 59.32 181.552 58.68C181.365 58.0133 181.192 57.3867 181.032 56.8C180.872 56.2133 180.738 55.6933 180.632 55.24C180.525 54.76 180.458 54.3733 180.432 54.08L179.912 54.24C179.752 55.0933 179.552 56.0933 179.312 57.24C179.098 58.3867 178.898 59.4933 178.712 60.56C178.472 61.8133 178.232 63.08 177.992 64.36L171.512 66.04ZM180.912 48.68C181.418 48.6267 182.032 48.4133 182.752 48.04C183.498 47.6667 184.205 47.2267 184.872 46.72C185.538 46.1867 186.112 45.64 186.592 45.08C187.072 44.52 187.312 44.0267 187.312 43.6C187.312 43.3067 187.218 43.08 187.032 42.92C186.845 42.7333 186.578 42.6 186.232 42.52C185.912 42.4133 185.552 42.3467 185.152 42.32C184.752 42.2933 184.338 42.28 183.912 42.28C183.618 42.28 183.312 42.2933 182.992 42.32C182.698 42.32 182.432 42.32 182.192 42.32L180.912 48.68ZM210.885 50.76C210.698 53.48 210.165 55.8533 209.285 57.88C208.405 59.88 207.338 61.56 206.085 62.92C204.858 64.28 203.525 65.2933 202.085 65.96C200.672 66.6267 199.325 66.96 198.045 66.96C197.058 66.96 196.112 66.7467 195.205 66.32C194.325 65.8933 193.552 65.2533 192.885 64.4C192.245 63.52 191.738 62.4267 191.365 61.12C190.992 59.8133 190.805 58.28 190.805 56.52C190.805 53.08 191.298 50.08 192.285 47.52C193.272 44.96 194.512 42.8267 196.005 41.12C197.525 39.4133 199.138 38.1467 200.845 37.32C202.578 36.4933 204.192 36.08 205.685 36.08C206.752 36.08 207.672 36.2667 208.445 36.64C209.245 37.0133 209.898 37.52 210.405 38.16C210.912 38.7733 211.272 39.5067 211.485 40.36C211.725 41.1867 211.845 42.0667 211.845 43L206.365 44.04C206.125 42.9733 205.805 42.2133 205.405 41.76C205.005 41.3067 204.552 41.08 204.045 41.08C203.378 41.08 202.645 41.56 201.845 42.52C201.045 43.4533 200.298 44.6667 199.605 46.16C198.912 47.6533 198.325 49.2933 197.845 51.08C197.365 52.8667 197.098 54.6267 197.045 56.36C197.045 58.0133 197.285 59.2 197.765 59.92C198.272 60.6133 198.912 60.96 199.685 60.96C200.218 60.96 200.765 60.8267 201.325 60.56C201.912 60.2933 202.432 59.92 202.885 59.44C203.338 58.9333 203.712 58.36 204.005 57.72C204.325 57.0533 204.498 56.3333 204.525 55.56L200.245 56.2L201.005 52.24C202.258 52.08 203.485 51.92 204.685 51.76C205.698 51.6267 206.765 51.4667 207.885 51.28C209.032 51.0933 210.032 50.92 210.885 50.76ZM212.166 65.4L214.006 57.36C214.006 56.2133 213.979 54.9733 213.926 53.64C213.899 52.28 213.846 50.92 213.766 49.56C213.686 48.2 213.606 46.8933 213.526 45.64C213.446 44.36 213.379 43.24 213.326 42.28C213.273 41.2933 213.219 40.5067 213.166 39.92C213.113 39.3333 213.086 39.04 213.086 39.04L219.606 36.56V41.44C219.606 42.1067 219.606 42.7867 219.606 43.48C219.606 44.1733 219.593 44.8533 219.566 45.52C219.566 46.1867 219.566 46.8133 219.566 47.4C219.566 47.9867 219.566 48.48 219.566 48.88C219.913 47.9733 220.326 46.8533 220.806 45.52C221.313 44.1867 221.779 42.8933 222.206 41.64C222.713 40.1733 223.233 38.6267 223.766 37L229.966 38.4C228.819 40.6933 227.699 42.9733 226.606 45.24C226.153 46.2267 225.673 47.2533 225.166 48.32C224.659 49.36 224.153 50.4133 223.646 51.48C223.139 52.52 222.646 53.5333 222.166 54.52C221.686 55.5067 221.246 56.4267 220.846 57.28C220.713 57.9733 220.539 58.7333 220.326 59.56C220.139 60.3867 219.953 61.1733 219.766 61.92C219.526 62.8 219.273 63.68 219.006 64.56L212.166 65.4ZM249.97 56.12C249.97 57.6133 249.677 58.9733 249.09 60.2C248.53 61.4 247.757 62.44 246.77 63.32C245.81 64.2 244.663 64.88 243.33 65.36C242.023 65.84 240.61 66.08 239.09 66.08C238.023 66.08 236.957 65.8 235.89 65.24C234.823 64.6533 233.797 63.7333 232.81 62.48L235.77 56.68C235.957 57.0267 236.237 57.3867 236.61 57.76C236.983 58.1067 237.397 58.4133 237.85 58.68C238.33 58.9467 238.797 59.1733 239.25 59.36C239.73 59.52 240.157 59.6 240.53 59.6C240.85 59.6 241.183 59.5467 241.53 59.44C241.877 59.3333 242.197 59.1733 242.49 58.96C242.783 58.7467 243.01 58.5067 243.17 58.24C243.357 57.9467 243.45 57.6133 243.45 57.24C243.45 56.6 243.237 56.0133 242.81 55.48C242.41 54.92 241.903 54.4 241.29 53.92C240.677 53.4133 240.01 52.9067 239.29 52.4C238.57 51.8933 237.903 51.36 237.29 50.8C236.703 50.24 236.197 49.6133 235.77 48.92C235.343 48.2267 235.13 47.4533 235.13 46.6C235.13 45.2133 235.543 43.92 236.37 42.72C237.197 41.52 238.223 40.4933 239.45 39.64C240.703 38.76 242.063 38.0667 243.53 37.56C244.997 37.0533 246.383 36.8 247.69 36.8C248.41 36.8 249.09 36.8933 249.73 37.08C250.37 37.24 250.917 37.52 251.37 37.92C251.85 38.2933 252.223 38.7733 252.49 39.36C252.783 39.9467 252.93 40.68 252.93 41.56C252.93 41.9333 252.89 42.3067 252.81 42.68C252.757 43.0533 252.703 43.4533 252.65 43.88L246.85 45.56C246.903 45.3467 246.943 45.1333 246.97 44.92C247.023 44.7067 247.05 44.4933 247.05 44.28C247.05 43.48 246.903 42.9067 246.61 42.56C246.343 42.1867 245.983 42 245.53 42C245.317 42 245.05 42.08 244.73 42.24C244.437 42.4 244.13 42.6133 243.81 42.88C243.517 43.12 243.263 43.4133 243.05 43.76C242.837 44.1067 242.73 44.48 242.73 44.88C242.73 45.52 242.903 46.0533 243.25 46.48C243.623 46.9067 244.077 47.3067 244.61 47.68C245.143 48.0533 245.717 48.44 246.33 48.84C246.97 49.2133 247.557 49.7067 248.09 50.32C248.623 50.9333 249.063 51.7067 249.41 52.64C249.783 53.5467 249.97 54.7067 249.97 56.12ZM253.038 66.04C253.651 63.1067 254.238 60.2133 254.798 57.36C255.038 56.16 255.278 54.9067 255.518 53.6C255.758 52.2933 255.984 51.0133 256.198 49.76C256.438 48.48 256.638 47.2533 256.798 46.08C256.984 44.88 257.144 43.7867 257.278 42.8C256.664 42.72 256.038 42.6933 255.398 42.72C254.784 42.7467 254.171 42.6667 253.558 42.48C253.584 42.0533 253.598 41.56 253.598 41C253.598 40.44 253.611 39.88 253.638 39.32C253.664 38.7067 253.691 38.0533 253.718 37.36C254.411 37.4133 255.104 37.4533 255.798 37.48C256.491 37.5067 257.184 37.52 257.878 37.52C259.238 37.52 260.544 37.4933 261.798 37.44C263.078 37.36 264.251 37.28 265.318 37.2C266.411 37.0933 267.478 36.9733 268.518 36.84L268.078 39C267.944 39.6133 267.811 40.24 267.678 40.88C267.571 41.52 267.464 42.0667 267.358 42.52C266.771 42.68 266.171 42.8 265.558 42.88C264.971 42.9333 264.384 43.0133 263.798 43.12C263.611 44.0267 263.411 45.04 263.198 46.16C262.984 47.2533 262.771 48.4 262.558 49.6C262.371 50.7733 262.184 51.9733 261.998 53.2C261.811 54.4267 261.624 55.6 261.438 56.72C261.011 59.36 260.611 62.0933 260.238 64.92L253.038 66.04ZM286.33 44.36C286.33 46.5467 286.09 48.6133 285.61 50.56C285.156 52.48 284.543 54.2533 283.77 55.88C282.996 57.48 282.09 58.92 281.05 60.2C280.036 61.4533 278.97 62.5333 277.85 63.44C276.73 64.32 275.596 65 274.45 65.48C273.303 65.9333 272.21 66.16 271.17 66.16C270.29 66.16 269.49 66 268.77 65.68C268.05 65.3333 267.423 64.84 266.89 64.2C266.356 63.5333 265.93 62.6933 265.61 61.68C265.316 60.64 265.17 59.4 265.17 57.96C265.17 56.4667 265.356 54.8933 265.73 53.24C266.103 51.5867 266.61 49.9467 267.25 48.32C267.89 46.6933 268.676 45.1467 269.61 43.68C270.543 42.2133 271.57 40.92 272.69 39.8C273.81 38.6533 275.01 37.7467 276.29 37.08C277.57 36.4133 278.903 36.08 280.29 36.08C281.49 36.08 282.476 36.3333 283.25 36.84C284.05 37.32 284.663 37.96 285.09 38.76C285.543 39.5333 285.863 40.4133 286.05 41.4C286.236 42.3867 286.33 43.3733 286.33 44.36ZM271.13 56.92C271.13 57.2133 271.183 57.52 271.29 57.84C271.396 58.16 271.543 58.44 271.73 58.68C271.916 58.92 272.143 59.1333 272.41 59.32C272.703 59.48 273.01 59.56 273.33 59.56C274.53 59.56 275.596 59.1467 276.53 58.32C277.463 57.4933 278.236 56.48 278.85 55.28C279.463 54.08 279.93 52.8 280.25 51.44C280.596 50.08 280.77 48.84 280.77 47.72C280.77 47.4 280.743 47.0533 280.69 46.68C280.663 46.3067 280.583 45.96 280.45 45.64C280.343 45.32 280.156 45.0533 279.89 44.84C279.65 44.6 279.316 44.48 278.89 44.48C278.036 44.48 277.25 44.6933 276.53 45.12C275.81 45.5467 275.156 46.12 274.57 46.84C274.01 47.5333 273.516 48.3333 273.09 49.24C272.663 50.12 272.29 51.0267 271.97 51.96C271.676 52.8667 271.463 53.76 271.33 54.64C271.196 55.52 271.13 56.28 271.13 56.92ZM283.816 66.04C284.536 62.4933 285.23 59.0267 285.896 55.64C286.136 54.2 286.403 52.7067 286.696 51.16C286.99 49.5867 287.256 48.04 287.496 46.52C287.763 44.9733 288.003 43.4933 288.216 42.08C288.456 40.64 288.643 39.3333 288.776 38.16C290.296 37.68 291.936 37.3333 293.696 37.12C295.456 36.88 297.203 36.76 298.936 36.76C299.976 36.76 300.83 36.88 301.496 37.12C302.19 37.36 302.723 37.7067 303.096 38.16C303.496 38.5867 303.776 39.0933 303.936 39.68C304.096 40.2667 304.176 40.92 304.176 41.64C304.176 42.7067 303.99 43.76 303.616 44.8C303.243 45.8133 302.736 46.7867 302.096 47.72C301.483 48.6267 300.763 49.4667 299.936 50.24C299.136 50.9867 298.27 51.6 297.336 52.08C297.816 53.1467 298.323 54.32 298.856 55.6C299.416 56.8533 299.936 58.0533 300.416 59.2C300.95 60.5333 301.496 61.8667 302.056 63.2L295.856 65.36C295.323 63.6533 294.843 62.0533 294.416 60.56C294.23 59.9467 294.043 59.32 293.856 58.68C293.67 58.0133 293.496 57.3867 293.336 56.8C293.176 56.2133 293.043 55.6933 292.936 55.24C292.83 54.76 292.763 54.3733 292.736 54.08L292.216 54.24C292.056 55.0933 291.856 56.0933 291.616 57.24C291.403 58.3867 291.203 59.4933 291.016 60.56C290.776 61.8133 290.536 63.08 290.296 64.36L283.816 66.04ZM293.216 48.68C293.723 48.6267 294.336 48.4133 295.056 48.04C295.803 47.6667 296.51 47.2267 297.176 46.72C297.843 46.1867 298.416 45.64 298.896 45.08C299.376 44.52 299.616 44.0267 299.616 43.6C299.616 43.3067 299.523 43.08 299.336 42.92C299.15 42.7333 298.883 42.6 298.536 42.52C298.216 42.4133 297.856 42.3467 297.456 42.32C297.056 42.2933 296.643 42.28 296.216 42.28C295.923 42.28 295.616 42.2933 295.296 42.32C295.003 42.32 294.736 42.32 294.496 42.32L293.216 48.68ZM301.75 66.04L306.99 37.6L319.63 36.52C319.443 37.1067 319.283 37.7067 319.15 38.32C319.016 38.8267 318.883 39.36 318.75 39.92C318.643 40.4533 318.55 40.9333 318.47 41.36C318.203 41.3867 317.816 41.4133 317.31 41.44C316.83 41.44 316.31 41.4533 315.75 41.48C315.19 41.48 314.616 41.48 314.03 41.48C313.47 41.48 312.976 41.48 312.55 41.48L311.15 48.64C311.976 48.5867 312.75 48.5467 313.47 48.52C314.056 48.4933 314.656 48.48 315.27 48.48C315.883 48.48 316.336 48.4667 316.63 48.44C316.523 49.1867 316.416 49.92 316.31 50.64C316.23 51.36 316.123 52.0933 315.99 52.84C315.723 52.8667 315.283 52.8933 314.67 52.92C314.083 52.92 313.483 52.9333 312.87 52.96C312.176 52.9867 311.416 53.0133 310.59 53.04L309.23 60.4L315.07 59.48L314.67 64.04L301.75 66.04Z" fill="white"/>
</g>
<rect x="0.5" y="30.5" width="41" height="24" rx="5.5" fill="#FED902" stroke="#95550B"/>
<rect x="4" y="33" width="34" height="19" rx="3" fill="url(#paint0_linear_3_77)"/>
<rect x="401.5" y="26.5" width="41" height="24" rx="5.5" fill="#FED902" stroke="#95550B"/>
<rect x="405" y="29" width="34" height="19" rx="3" fill="url(#paint1_linear_3_77)"/>
<rect x="400.5" y="55.5" width="41" height="24" rx="5.5" fill="#FED902" stroke="#95550B"/>
<rect x="404" y="58" width="34" height="19" rx="3" fill="url(#paint2_linear_3_77)"/>
<rect x="0.5" y="61.5" width="41" height="24" rx="5.5" fill="#FED902" stroke="#95550B"/>
<rect x="4" y="64" width="34" height="19" rx="3" fill="url(#paint3_linear_3_77)"/>
<defs>
<filter id="filter0_d_3_77" x="81" y="18" width="280" height="75" filterUnits="userSpaceOnUse" color-interpolation-filters="sRGB">
<feFlood flood-opacity="0" result="BackgroundImageFix"/>
<feColorMatrix in="SourceAlpha" type="matrix" values="0 0 0 0 0 0 0 0 0 0 0 0 0 0 0 0 0 0 127 0" result="hardAlpha"/>
<feOffset dy="4"/>
<feGaussianBlur stdDeviation="2"/>
<feComposite in2="hardAlpha" operator="out"/>
<feColorMatrix type="matrix" values="0 0 0 0 0 0 0 0 0 0 0 0 0 0 0 0 0 0 0.25 0"/>
<feBlend mode="normal" in2="BackgroundImageFix" result="effect1_dropShadow_3_77"/>
<feBlend mode="normal" in="SourceGraphic" in2="effect1_dropShadow_3_77" result="shape"/>
</filter>
<linearGradient id="paint0_linear_3_77" x1="21" y1="33" x2="21" y2="52" gradientUnits="userSpaceOnUse">
<stop stop-color="#FF5302"/>
<stop offset="1" stop-color="#FED902"/>
</linearGradient>
<linearGradient id="paint1_linear_3_77" x1="422" y1="29" x2="422" y2="48" gradientUnits="userSpaceOnUse">
<stop stop-color="#FF5302"/>
<stop offset="1" stop-color="#FED902"/>
</linearGradient>
<linearGradient id="paint2_linear_3_77" x1="421" y1="58" x2="421" y2="77" gradientUnits="userSpaceOnUse">
<stop stop-color="#FF5302"/>
<stop offset="1" stop-color="#FED902"/>
</linearGradient>
<linearGradient id="paint3_linear_3_77" x1="21" y1="64" x2="21" y2="83" gradientUnits="userSpaceOnUse">
<stop stop-color="#FF5302"/>
<stop offset="1" stop-color="#FED902"/>
</linearGradient>
</defs>
</svg>
